<?xml version="1.0" encoding="utf-8"?>
<!-- Generator: Adobe Illustrator 17.0.0, SVG Export Plug-In . SVG Version: 6.00 Build 0)  -->
<!DOCTYPE svg PUBLIC "-//W3C//DTD SVG 1.1//EN" "http://www.w3.org/Graphics/SVG/1.1/DTD/svg11.dtd">
<svg version="1.1" xmlns="http://www.w3.org/2000/svg" xmlns:xlink="http://www.w3.org/1999/xlink" x="0px" y="0px"
	 width="32px" height="32px" viewBox="0 0 32 32" enable-background="new 0 0 32 32" xml:space="preserve">
<path fill="#4d94dd" d="M5.197,13.988c1.525,0,2.767-1.225,2.768-2.73c-0.001-1.505-1.242-2.73-2.767-2.731
	c-1.525,0.001-2.767,1.225-2.767,2.73C2.431,12.763,3.672,13.988,5.197,13.988z M8.672,9.003c0.364-0.543,0.854-0.997,1.429-1.319
	C9.776,7.503,9.473,7.28,9.202,7.012C9,6.813,8.822,6.597,8.669,6.368C8.305,6.909,7.815,7.362,7.24,7.683
	C7.817,8.005,8.307,8.46,8.672,9.003z M12.146,13.988c1.526,0,2.767-1.225,2.767-2.73c0-1.505-1.241-2.729-2.767-2.73
	c-1.525,0-2.767,1.225-2.767,2.73C9.379,12.763,10.621,13.988,12.146,13.988z M14.913,4.108c0-1.505-1.241-2.73-2.767-2.73
	c-1.525,0-2.766,1.225-2.766,2.73c0,0.729,0.287,1.414,0.81,1.93c0.523,0.516,1.217,0.8,1.955,0.8h0.001
	C13.671,6.838,14.912,5.613,14.913,4.108z M5.197,1.378c-1.525,0-2.766,1.225-2.766,2.73c0,1.505,1.241,2.73,2.766,2.73
	s2.767-1.225,2.767-2.73C7.965,2.603,6.723,1.378,5.197,1.378z M3.155,7.683c-1.264-0.706-2.12-2.043-2.12-3.575
	C1.035,1.843,2.902,0,5.197,0c1.451,0,2.729,0.737,3.475,1.85C9.418,0.737,10.696,0,12.146,0c2.296,0,4.163,1.843,4.163,4.108
	c-0.001,1.532-0.857,2.868-2.12,3.574c1.264,0.706,2.12,2.043,2.12,3.575c0,0.801-0.237,1.547-0.641,2.179l15.093,14.892
	c0.273,0.269,0.273,0.705,0,0.974c-0.136,0.135-0.315,0.202-0.494,0.202c-0.179,0-0.357-0.067-0.494-0.202l-1.575-1.553
	l-4.103,4.048C23.96,31.933,23.782,32,23.603,32c-0.179,0-0.357-0.067-0.494-0.202c-0.273-0.269-0.273-0.705,0-0.974l4.103-4.048
	l-1.561-1.54l-2.861,2.822c-0.136,0.135-0.315,0.202-0.494,0.202c-0.179,0-0.358-0.067-0.494-0.202
	c-0.273-0.269-0.273-0.705,0-0.974l2.86-2.822l-9.926-9.794c-0.712,0.561-1.612,0.899-2.592,0.899c-1.45,0-2.729-0.737-3.474-1.851
	c-0.746,1.113-2.024,1.851-3.475,1.851c-2.295,0-4.163-1.843-4.163-4.108C1.034,9.726,1.891,8.389,3.155,7.683z"/>
</svg>
