<?xml version="1.0" encoding="utf-8"?>
<!DOCTYPE svg PUBLIC "-//W3C//DTD SVG 1.1//EN" "http://www.w3.org/Graphics/SVG/1.1/DTD/svg11.dtd">
<svg version="1.1"  xmlns="http://www.w3.org/2000/svg" xmlns:xlink="http://www.w3.org/1999/xlink" x="0px" y="0px"
	 width="32px" height="32px" viewBox="0 0 32 32" enable-background="new 0 0 32 32" xml:space="preserve">
<path fill="#4d94dd" d="M28.355,21.165l-3.467-0.953c-0.381-0.105-0.776,0.114-0.883,0.489c-0.107,0.375,0.116,0.763,0.497,0.868
	l3.462,0.951c1.727,0.488,2.603,1.293,2.603,2.393v3.313c0,1.304-1.079,2.365-2.405,2.365H3.838c-1.326,0-2.405-1.061-2.405-2.365
	v-3.313c0-0.407,0-1.647,2.596-2.391l3.63-0.987c0.381-0.104,0.605-0.492,0.5-0.867c-0.106-0.375-0.5-0.595-0.882-0.491l-3.64,0.99
	C0.631,22.028,0,23.679,0,24.913v3.313C0,30.307,1.722,32,3.838,32h24.324C30.278,32,32,30.307,32,28.226v-3.313
	C32,23.673,31.368,22.017,28.355,21.165z M8.457,8.89c0-4.125,3.413-7.481,7.608-7.481c4.195,0,7.609,3.356,7.609,7.481v4.348
	c0,4.125-3.413,7.481-7.609,7.481c-4.195,0-7.608-3.356-7.608-7.481V8.89z M16.065,22.127c4.985,0,9.041-3.988,9.041-8.889V8.89
	c0-4.902-4.056-8.89-9.041-8.89C11.08,0,7.024,3.988,7.024,8.89v4.348C7.024,18.14,11.08,22.127,16.065,22.127z"/>
</svg>
